# xmcd
#
# Track frame offsets:
#	150
#	8852
#	13516
#	24151
#	37813
#	56854
#	60089
#	80289
#	98412
#	121750
#	144702
#	163955
#	180832
#	196119
#
# Disc length: 3018 seconds
#
# Revision: 0
# Processed by: cddbd v1.5.2PL0 Copyright (c) Steve Scherf et al.
# Submitted via: EZCDAudioConverter 2.1.7.1
#
DISCID=980bc80e
DTITLE=Crowded House - Together Alone 2/2
DYEAR=1900
DGENRE=
TTITLE0=Blue Smoke [Home Demo]
TTITLE1=Fingers Of Love [Writing Demo]
TTITLE2=Private Universe [Home Demo]
TTITLE3=The Same Language As Me [Live]
TTITLE4=Tail Of A Comet [Live]
TTITLE5=Distant Sun [Writing Demo]
TTITLE6=I Am In Love [Band Demo]
TTITLE7=Fingers Of Love [Band Demo]
TTITLE8=Fingers Of Love [Alternate Studio Take]
TTITLE9=Black and White Boy [Early Rough Mix]
TTITLE10=Locked Out [Zen Mix]
TTITLE11=Newcastle Jam [Studio Version]
TTITLE12=Convent Girls [Studio Version]
TTITLE13=Zen Roxy [B-Side]
EXTD=
EXTT0=
EXTT1=
EXTT2=
EXTT3=
EXTT4=
EXTT5=
EXTT6=
EXTT7=
EXTT8=
EXTT9=
EXTT10=
EXTT11=
EXTT12=
EXTT13=
PLAYORDER=
